<?xml version="1.0" encoding="utf-8"?>
<!-- Generator: Adobe Illustrator 26.3.1, SVG Export Plug-In . SVG Version: 6.00 Build 0)  -->
<svg version="1.1" id="Ebene_1" xmlns="http://www.w3.org/2000/svg" xmlns:xlink="http://www.w3.org/1999/xlink" x="0px" y="0px"
	 viewBox="0 0 450.9 135.3" style="enable-background:new 0 0 450.9 135.3;" xml:space="preserve">
<style type="text/css">
	.st0{fill:#FFFFFF;}
	.st1{fill:#90BF3D;}
</style>
<g>
	<path class="st0" d="M73.7,62.1c21.8,0,43.6,0,65.4,0c4,0,4,0,3.5,4c-1.7,12.6-5,24.6-12.4,35.2c-14.3,20.4-34.3,30.5-58.8,30.2
		c-23.2-0.3-41.6-11.3-55.3-30C8.4,91.1,4.3,79.2,3.3,66.3C3.1,63.6,4,63,6.5,62.9C28.9,62.1,51.3,61.9,73.7,62.1z"/>
	<path class="st0" d="M94,56.8c-2.3,0-2.8-0.6-1.4-2.7c9.9-14.9,19.7-29.8,31.6-43.2c2.3-2.6,4.9-5,7.3-7.5c1-1.1,1.9-1.2,3.1-0.4
		c2,1.3,4.1,2.5,6.1,3.8c5.1,3.4,5.1,3.4,3.9,9.3c-2.8,14-8.9,26.8-14.3,39.9c-0.6,1.3-1.5,1.7-2.8,1.6
		C124.6,57.5,102.2,56.8,94,56.8z"/>
	<path class="st0" d="M38.8,35.9c5,5.9,2.4,2.8,7.4,8.8c3.2,3.8,6,7.9,8.3,12.4c-12.7,4.1-29-2.2-36.6-14.1
		c-5.3-8.4-7.4-17.8-8.7-27.4c-0.2-1.7,0.9-1.5,1.8-1.6c4.4-0.6,8.8-0.6,13.2-0.3c7.5,0.5,14.8,1.9,21.5,5.5
		c8.1,4.3,12.2,11.3,13.5,20c0.8,5,0.9,10.1,0.1,15.9C50.6,44.5,49.5,43.8,38.8,35.9C38.2,35.8,38.4,34.9,38.8,35.9z"/>
	<path class="st0" d="M296.4,97.1c0-7,0-14.1,0-21.1c0-2.8,1-2.6,2.9-1.4c4,2.5,6.3,5.9,6.5,10.7c0.2,3.7,0.2,7.4,0.4,11
		c0,0.7-0.2,1.7,0.6,2.1c0.9,0.4,1.3-0.6,1.8-1.1c3.2-3.2,6.5-6.5,9.6-9.8c1.4-1.5,2.4-1.7,3.6,0.1c0.6,0.9,1.5,1.7,2.2,2.6
		c1.5,2.1,1.6,4-0.2,6c-2.2,2.5-6.2,4.6-6.1,7.6c0.1,2.6,3.6,5.1,5.6,7.7c0.7,1,1.5,2,1.9,3.1c0.6,1.6,1.9,3.4,0.3,4.9
		c-1.5,1.4-3.6,1.1-5.4,0.4c-2.3-0.9-4.3-2.3-6.2-4c-2-1.8-4-3.6-6-5.3c-0.5-0.4-0.9-1.2-1.7-0.8c-0.7,0.4-0.4,1.2-0.4,1.8
		c0,1.7-0.2,3.4,0,5c0.4,3.1-1,3.8-3.8,3.7c-5.6-0.1-5.7,0.1-5.8-5.6c-0.1-5.9,0-11.8,0-17.8C296.2,97.1,296.3,97.1,296.4,97.1z"/>
	<path class="st0" d="M63.7,53.7c-1.7-10.1-2.5-20-2.6-30.6c-1.6,3.5-2.8,1.9-4.3,0.5c-5.4-4.9-5.4-4.9,0.7-9
		c4.1-2.7,8.2-5.3,12.3-7.9c1.1-0.7,2.1-1.4,2.6,0.6c2,7.5,4,14.9,4.4,22.8C77.3,40.6,71.8,47.6,63.7,53.7z"/>
	<path class="st0" d="M446.4,51.7c0,3.7-0.1,7.4,0,11c0.1,2.5-0.9,3.1-3.2,2.8c-1.8-0.3-3.5-0.5-5.3-0.5c-2,0-2.8-1-2.8-2.9
		c0.1-3.1,0.2-6.2,0.2-9.4c0-3.4,0-6.7-1.3-9.9c-0.7-1.6-1.5-3.1-3.5-3.2c-2.2-0.1-3.6,1.1-4.5,2.9c-1.4,2.7-1.6,5.8-1.7,8.8
		c-0.1,4.1-0.1,8.2,0,12.4c0,2.1-0.7,2.8-2.8,2.3c-8.1-1.6-8.1-1.5-8.1-9.9c0-5,0.2-10,0-15.1c-0.1-2.5,0.8-4,3.1-4.9
		c1.3-0.5,2.6-1.2,3.9-1.9c5.8-3.3,11.5-3.3,17.6-0.4c8.3,3.9,8.4,3.7,8.4,12.7C446.4,48.3,446.4,50,446.4,51.7
		C446.4,51.7,446.4,51.7,446.4,51.7z"/>
	<path class="st0" d="M200.9,52c0,3.7-0.1,7.4,0,11.1c0.1,1.9-0.6,2.5-2.5,2.4c-8.2-0.4-8.2-0.4-8.2-8.6c0-4,0.4-8.1-0.8-12
		c-0.7-2.4-1.3-5.4-4.6-5.3c-3.3,0.2-4.7,2.7-5.3,5.7c-0.8,4-0.9,8-0.5,12c0.2,1.7,0.2,3.3,0.2,5c0,0.8,0,1.9-0.5,2.2
		c-2.6,2.2-5.4-0.2-8.2,0.3c-1.4,0.2-1.9-0.7-2-2.1c-0.5-7.8-0.5-15.6-0.5-23.4c0-1.4,0.7-2,1.8-2.5c2.8-1.4,5.6-2.8,8.5-4
		c4.8-2.1,9.3-1.1,13.9,1c8.7,3.9,8.8,3.8,8.8,13.2C201,48.7,201,50.3,200.9,52C200.9,52,200.9,52,200.9,52z"/>
	<path class="st0" d="M241.1,49.1c0,4-0.1,8,0,12.1c0.1,2-0.6,3-2.6,3.5c-8.4,2.1-16.8,2.1-25.1-0.3c-1.8-0.5-2.5-1.4-2.6-3.2
		c-0.8-9.1-1.1-18.3-1.2-27.4c0-1.8,0.6-2.2,2.2-1.5c1.8,0.7,3.5,1.4,5.3,2.1c1.5,0.5,1.9,1.4,2.1,3c0.7,5.6,0.6,11.1,0.4,16.7
		c0,2.3,0.7,3.4,3,3.8c7.1,1.2,8.1,0.5,8.5-7c0.3-5.1,0.3-10.3,0.4-15.4c0-2.2,0.5-3.2,3.2-2.6c7.8,1.9,6.3,0.1,6.5,7.9
		C241.2,43.6,241.2,46.3,241.1,49.1C241.1,49.1,241.1,49.1,241.1,49.1z"/>
	<path class="st0" d="M290,114.4c-3.2,2.6-5.5,4.5-7.9,6.4c-1,0.8-2.2,1.1-3.5,1.2c-8.2,0.7-17.9-6.7-18.8-14.4
		c-1.4-11.1,4.3-19.4,14.4-20.8c5.5-0.8,9.8,1.3,13.2,5.6c1.4,1.8,1.2,2.6-1.3,2.7c-3.9,0.2-7.8,0.9-11.6,1.1c-2,0.1-3,0.7-2.9,2.9
		c0.2,3.2,0.1,6.5,0,9.7c-0.1,2,0.8,2.7,2.7,3C279.1,112.6,284.1,113.4,290,114.4z"/>
	<path class="st0" d="M188.3,93.5c1.1,3.4-0.9,3.7-3.4,4.1c-9.6,1.4-6.8-0.7-6.3,8.7c0.3,5.4,4.5,6.6,8.3,8.4c1,0.5,2.8,0.5,2.8,1.9
		c0,1-1.5,1.5-2.5,2.1c-3.1,2-6.3,3.7-10.3,2.6c-4.5-1.2-7.1-3.6-7.9-8.6c-1.5-10.3-0.7-20.4,0.1-30.7c0.1-1.7,1-2,2.5-1.7
		c3.4,0.8,5.7,3.1,7.3,6c1.3,2.3,2.9,3.2,5.4,3C187.3,89,189.3,89.9,188.3,93.5z"/>
	<path class="st0" d="M326.4,46.5c-0.1-7-0.1-14.1,0.7-21.1c0.1-0.6-0.2-1.5,0.5-1.8c0.8-0.4,1.2,0.4,1.6,0.8
		c4.9,4.8,9.9,9.4,15.9,12.7c2.5,1.4,1.9,2.5-0.3,3.5c-0.4,0.2-0.8,0.5-1.2,0.6c-6.9,1.9-8.6,6.6-7.4,13.1c0.4,2,0.9,3,2.8,3.5
		c2.2,0.6,4.2,1.4,6.4,2c2.7,0.7,2.3,1.6,0.5,3.1c-3.7,3.2-7.8,3.9-12.5,2.6c-8.4-2.3-6.8-0.4-7.1-8.7
		C326.3,53.5,326.4,50,326.4,46.5z"/>
	<path class="st0" d="M250.7,46.3c-0.2-6.4-0.3-12.9,0.6-19.3c0.4-2.7,1.4-3,3.4-1.4c1.5,1.2,3,2.3,4.3,3.7c2.4,2.6,5,4.6,8.2,6.1
		c3.4,1.5,3.5,4.6,0.4,6.6c-0.4,0.2-0.8,0.4-1.2,0.6c-1.9,1.1-5.1,0.8-5.6,3.1c-0.7,3.3-0.3,6.9-0.3,10.3c0,1.3,1.2,1.5,2.1,1.8
		c2.5,0.9,5.1,1.7,7.6,2.5c1.5,0.5,2.3,0.9,0.6,2.3c-5,4.3-14,5.1-19.1,1.4c-1.1-0.8-1-1.9-1-3C250.6,56.1,250.7,51.2,250.7,46.3z"
		/>
	<path class="st0" d="M195.8,105.1c0-3.8,0.1-7.6,0-11.4c0-2.3,0.9-3.4,3.1-4c3.6-0.9,7.1-2,10.5-3.2c2.6-1,4.3-0.4,6,1.8
		c3.5,4.5,3.6,4.4-1.6,6.3c-7.3,2.6-7.3,2.6-7.3,10.5c0,4-0.1,8,0,12c0.1,2.6-0.9,3.2-3.3,3c-8-0.5-8-0.4-7.9-8.5c0-2.2,0-4.5,0-6.7
		C195.5,105.1,195.7,105.1,195.8,105.1z"/>
	<path class="st0" d="M302.6,37c-4,1.7-7.5,3.3-11.2,4.6c-2.5,0.9-3.4,2.3-3.3,5c0.2,5.9-0.2,11.8-0.6,17.7
		c-0.1,1.9-0.7,2.4-2.4,1.9c-0.2-0.1-0.4-0.1-0.7-0.2c-6.8-1.5-6.7-1.5-6.6-8.5c0.2-6.7,0.3-13.4,0.8-20c0.2-1.9,0.7-3.1,2.7-3.5
		c2.8-0.6,5.6-1.5,8.5-1.9C294.8,31.3,298.7,33.4,302.6,37z"/>
	<path class="st0" d="M394,92.6c-3.8,1.3-7.2,2.7-10.8,3.7c-1.9,0.6-2.6,1.5-2.6,3.6c0,5.4-0.2,10.7-0.5,16.1
		c-0.1,1.6,0.7,3.9-1.9,4.4c-2.6,0.4-5.2,0.4-6.8-2.3c-0.6-1.1-1.1-2.2-1.1-3.5c-0.2-7.4-0.2-14.7,1-22c0.3-1.8,0.9-2.8,2.8-3.2
		c2-0.4,4-0.9,5.8-1.8C386.2,84.5,390.1,87.7,394,92.6z"/>
	<path class="st0" d="M353.9,49.2c0-4.9,0-9.8,0-14.7c0-1.6,0.6-2.1,2.2-1.9c6.3,0.5,7,1.3,7.9,7.7c1.2,8.5-0.6,16.9-1.1,25.3
		c-0.2,3.1-1.6,2.4-3.3,1.2c-5.1-3.7-5.8-9.2-6.3-14.9c-0.1-0.9,0-1.8,0-2.7C353.5,49.3,353.7,49.3,353.9,49.2z"/>
	<path class="st0" d="M306.9,48.6c0-4.4,0.1-8.7,0-13.1c0-1.9,0.6-2.5,2.5-2.5c7.6,0.2,7.7,0.1,7.6,7.7c-0.1,7.8,0.2,15.6-0.5,23.4
		c-0.2,2.1-0.9,2.3-2.7,1.9c-6.8-1.5-6.8-1.4-6.8-8.5C306.9,54.6,306.9,51.6,306.9,48.6z"/>
	<path class="st0" d="M358.2,16.3c3.8-0.1,7.5,2.9,7.5,6.1c0,3.1-2.7,6.2-5.5,5.9c-2.5-0.3-6.1,0.3-7-3
		C352.4,22.2,356.1,16.4,358.2,16.3z"/>
	<path class="st0" d="M317,24.9c0.1,2.1-0.2,3.9-2.9,3.8c-5-0.2-8.6-2.3-8.7-5.2c-0.1-2.1,4.7-7.6,6.7-7.6
		C314.4,15.8,317,20.6,317,24.9z"/>
	<path class="st1" d="M31.1,26.9c-0.6-0.5-1.1-0.9-1.8-1.5c1.3-0.6,1.9,0.1,2.5,0.8C31.6,26.4,31.4,26.7,31.1,26.9z"/>
	<path class="st1" d="M29.4,23.9c-0.4,0.2-0.8,0.5-0.9,0.4c-0.3-0.2-0.6-0.5-0.8-0.8c-0.1-0.3,0.2-0.5,0.5-0.4
		C28.6,23.3,28.9,23.5,29.4,23.9z"/>
	<path class="st0" d="M406.8,51.5c0.1-3.1-1-6-1.4-9.1c-0.7-5.8-3.2-9.4-9.5-9.4c-1.9,0-3.7-0.8-5.6-0.9
		c-8.3-0.9-15.8,4.4-17.8,12.5c-2.3,9.4,2.2,18,11.2,21.6C393,69.8,408,62.7,406.8,51.5z M392.6,57.9c-5,3-5,3-7.4-2.4
		c-0.9-2-1.8-4.1-2.2-6.3c-0.6-3.1,1.3-7.1,4-8.6c4.2-2.3,8.3-0.1,8.5,4.6c0.1,2.8,0.3,5.6,0.4,8.2C396.6,56.4,394.2,57,392.6,57.9z
		"/>
	<path class="st0" d="M250.9,91c-0.3-1.4-1-2.1-2.4-2.3c-4-0.6-7.9-1.4-11.9-1.8c-4.3-0.4-8.2,0.6-11.3,3.8c-1,1.1-3,2.1-2.5,3.6
		c0.5,1.3,2.6,0.5,4,0.5c5.5,0.1,11.1,0,16.2,3.2c-3.8,0.9-7.6,1.9-11.3,2.8c-4,1.1-7.4,3-9.8,6.5c-1.6,2.4-1.7,4.5,0.2,7
		c7.1,9,20.5,10.2,29.1,2.4c1.5-1.4,2.2-2.9,2.3-4.9C254,104.6,252.5,97.8,250.9,91z M236.8,115c-3.2-0.1-5.1-1.6-5.1-4
		c0-2.6,2.6-4.7,5.9-4.6c3.1,0,5.3,1.9,5.3,4.4C242.9,113.4,240.4,115.1,236.8,115z"/>
	<path class="st0" d="M361.6,104.5c1.1-0.3,2.5-0.2,2.2-2.2c-1.3-8.2-6.6-12.9-13.8-16.4c-5.2-2.5-7.7,2-11.3,3.4
		c-1.5,0.6-2.8,1.8-4.2,2.8c-0.9,0.7-1.7,1.4-2.1,2.5c-4.1,11.6-1.8,24.2,14.9,27.1c6.7,1.1,12.9-2.4,15.9-9.2
		c-7.8,0.4-15.6,1.6-22.9-2.4c1-1,2-1,3-1.2C349.5,107.5,355.6,106,361.6,104.5z M340.5,99.4c-0.5-1.7,0.8-3.1,1.9-4.4
		c1.9-2.1,4.3-2.8,6.9-1.7c2.5,1,4.1,3.2,3.8,5.7c-0.3,2.1-3,1.1-4.6,1.6c-0.6,0.2-1.3,0.1-2,0.1c-0.8,0-1.6,0-2.3-0.1
		C343.1,100.2,341.1,101,340.5,99.4z"/>
</g>
</svg>
