<?xml version="1.0" standalone="no"?>
<!DOCTYPE svg PUBLIC "-//W3C//DTD SVG 20010904//EN"
 "http://www.w3.org/TR/2001/REC-SVG-20010904/DTD/svg10.dtd">
<svg version="1.0" xmlns="http://www.w3.org/2000/svg"
 width="200.000000pt" height="200.000000pt" viewBox="0 0 200.000000 200.000000"
 preserveAspectRatio="xMidYMid meet">
<metadata>
Created by potrace 1.14, written by Peter Selinger 2001-2017
</metadata>
<g transform="translate(0.000000,200.000000) scale(0.100000,-0.100000)"
fill="#000000" stroke="none">
<path d="M1760 1878 c-33 -17 -68 -53 -137 -143 -94 -121 -410 -566 -420 -591
-4 -12 45 -14 290 -14 l296 0 69 178 c97 246 133 357 139 427 4 51 2 64 -17
88 -27 34 -85 64 -137 72 -28 5 -49 0 -83 -17z"/>
<path d="M780 1819 c-84 -46 -129 -77 -180 -125 l-35 -33 -60 30 c-90 44 -156
59 -296 66 -157 7 -197 1 -205 -33 -9 -35 11 -153 42 -245 71 -215 212 -344
392 -356 82 -6 177 2 201 16 15 10 0 44 -51 119 -17 24 -28 46 -25 48 5 5 85
-103 106 -144 14 -26 30 -21 32 11 1 17 2 18 6 5 4 -16 7 -16 46 3 172 87 237
246 191 466 -15 72 -70 213 -83 213 -3 0 -40 -19 -81 -41z"/>
<path d="M23 1003 c39 -542 525 -948 1068 -892 466 47 833 424 866 887 l6 92
-973 0 -973 0 6 -87z"/>
</g>
</svg>
